<svg width="16" height="17" viewBox="0 0 16 17" fill="none" xmlns="http://www.w3.org/2000/svg">
<path d="M8.20581 1.58969C8.19065 1.55531 8.14188 1.55532 8.12673 1.58969L6.03219 6.34229C6.02784 6.35217 6.01995 6.36005 6.01008 6.36441L1.25672 8.4597C1.22235 8.47485 1.22235 8.52362 1.25672 8.53878L6.01008 10.6341C6.01995 10.6384 6.02784 10.6463 6.03219 10.6562L8.12674 15.4103C8.14188 15.4447 8.19066 15.4447 8.20581 15.4103L10.3019 10.6569C10.3062 10.6471 10.3141 10.6392 10.324 10.6348L15.0766 8.53954C15.111 8.52438 15.111 8.47562 15.0766 8.46046L10.324 6.36517C10.3141 6.36082 10.3062 6.35293 10.3019 6.34306L8.20581 1.58969Z" stroke="white" stroke-width="1.16667"/>
</svg>
